<svg t="1630676896886" class="icon" viewBox="0 0 1024 1024" version="1.1" xmlns="http://www.w3.org/2000/svg" p-id="10558" width="32" height="32"><path d="M783.536 240.464a32 32 0 1 0-45.248 45.248c124.768 124.768 124.768 327.776 0 452.544-124.768 124.768-327.776 124.768-452.544 0s-124.768-327.776 0-452.544a32 32 0 1 0-45.248-45.248c-149.968 149.968-149.968 393.104 0 543.056s393.104 149.968 543.056 0 149.936-393.088-0.016-543.056z" p-id="10559" fill="#ffffff"></path><path d="M512 512a32 32 0 0 1-32-32V160a32 32 0 0 1 64 0v320a32 32 0 0 1-32 32z" p-id="10560" fill="#ffffff"></path></svg>