<svg t="1630638109555" class="icon" viewBox="0 0 1024 1024" version="1.1" xmlns="http://www.w3.org/2000/svg" p-id="6281" width="32" height="32"><path d="M892.88192 515.21536a27.40736 27.40736 0 0 0 0.4608-4.608V218.112a74.83392 74.83392 0 0 0-74.752-74.752H141.312A74.83392 74.83392 0 0 0 66.56 218.112v481.03424a74.83392 74.83392 0 0 0 74.752 74.752h420.51584a26.68544 26.68544 0 0 0 8.15104-1.38752 209.408 209.408 0 1 0 322.90304-257.29536zM141.312 719.91808a20.76672 20.76672 0 0 1-20.74112-20.74624V218.112a20.76672 20.76672 0 0 1 20.74112-20.72064h677.29408a20.76672 20.76672 0 0 1 20.74112 20.74624V480.256a209.36192 209.36192 0 0 0-289.85344 239.67744H141.312z m611.84 106.69568a155.49952 155.49952 0 1 1 155.43808-155.49952 155.648 155.648 0 0 1-155.43808 155.49952z" fill="#2966C1" p-id="6282"></path><path d="M666.112 323.2512H207.7952a27.00288 27.00288 0 0 1 0-54.00576H666.112a27.00288 27.00288 0 0 1 0 54.00576zM502.53312 468.82816H207.7952a27.00288 27.00288 0 0 1 0-54.00576h294.73792a27.00288 27.00288 0 0 1 0 54.00576zM442.55232 614.4H207.7952a27.008 27.008 0 0 1 0-54.01088h234.75712a27.008 27.008 0 0 1 0 54.01088z m274.36032 134.3488a43.94496 43.94496 0 0 1-43.99104-43.99104v-100.97152a43.99616 43.99616 0 0 1 65.98656-38.12352l87.41888 50.49856a44.032 44.032 0 0 1 0 76.23168l-87.41376 50.48832a43.9552 43.9552 0 0 1-22.00064 5.87776z m9.99424-127.6672v66.36544l57.4464-33.18272z" fill="#FD9A16" p-id="6283"></path></svg>