<svg t="1630936458858" class="icon" viewBox="0 0 1024 1024" version="1.1" xmlns="http://www.w3.org/2000/svg" p-id="4566" width="32" height="32"><path d="M512 234.666667a21.333333 21.333333 0 0 1 3.84 42.325333L512 277.333333H298.666667a21.333333 21.333333 0 0 0-20.992 17.493334L277.333333 298.666667v426.666666a21.333333 21.333333 0 0 0 17.493334 20.992L298.666667 746.666667h426.666666a21.333333 21.333333 0 0 0 20.992-17.493334L746.666667 725.333333V512a21.333333 21.333333 0 0 1 42.325333-3.84L789.333333 512v213.333333a64 64 0 0 1-57.856 63.701334L725.333333 789.333333H298.666667a64 64 0 0 1-63.701334-57.856L234.666667 725.333333V298.666667a64 64 0 0 1 57.856-63.701334L298.666667 234.666667h213.333333z" fill="#333333" p-id="4567"></path><path d="M781.653333 256a21.333333 21.333333 0 0 0-27.221333-2.474667L751.488 256 562.005333 445.653333a21.333333 21.333333 0 0 0 27.178667 32.64l2.986667-2.474666 189.482666-189.653334a21.333333 21.333333 0 0 0 0-30.165333z" fill="#333333" p-id="4568"></path><path d="M630.144 257.194667a21.333333 21.333333 0 0 1 17.493333-20.992l3.84-0.341334h157.098667V392.96a21.333333 21.333333 0 0 1-42.325333 3.84l-0.341334-3.84V278.528h-114.432a21.333333 21.333333 0 0 1-20.992-17.493333l-0.341333-3.84z" fill="#333333" p-id="4569"></path></svg>