<svg t="1630574215136" class="icon" viewBox="0 0 1024 1024" version="1.1" xmlns="http://www.w3.org/2000/svg" p-id="3898" width="32" height="32"><path d="M801.116 241.136c62.484 62.484 62.484 163.792 0 226.276l-169.706 169.706c-62.484 62.484-163.792 62.484-226.274 0-62.484-62.484-62.484-163.792 0-226.274l169.706-169.708c62.486-62.482 163.79-62.482 226.274 0z" fill="#DFEAFF" p-id="3899"></path><path d="M512 772c26.71 0 51.824-10.4 71.146-29.724l169.27-169.272c18.888-18.886 29.292-43.998 29.292-70.708s-10.402-51.822-29.292-70.71c-18.888-18.886-44-29.29-70.708-29.29-26.71 0-51.822 10.402-70.71 29.29l-56.568 56.568a60 60 0 0 1-84.852 0l-56.57-56.568c-18.886-18.886-44-29.29-70.71-29.29s-51.822 10.4-70.71 29.29c-18.886 18.886-29.29 44-29.29 70.71s10.4 51.822 29.29 70.71l169.708 169.706C460.178 761.6 485.288 772 512 772m0 60c-40.948 0-81.894-15.622-113.136-46.864l-169.706-169.706c-62.484-62.484-62.484-163.79 0-226.276 31.242-31.24 72.19-46.862 113.136-46.862s81.894 15.622 113.136 46.862L512 445.724l56.568-56.568c31.24-31.242 72.188-46.864 113.134-46.864 40.95 0 81.896 15.622 113.136 46.864 62.486 62.484 62.486 163.79 0 226.274l-169.27 169.27-0.434 0.436C593.896 816.378 552.946 832 512 832z" fill="#1F48D1" p-id="3900"></path></svg>