<svg t="1630639579888" class="icon" viewBox="0 0 1024 1024" version="1.1" xmlns="http://www.w3.org/2000/svg" p-id="3490" width="32" height="32"><path d="M788.48 173.056H235.52c-93.696 0-165.888 62.976-165.888 145.408v387.584c0 82.432 71.68 145.408 165.888 145.408h552.96c93.696 0 165.888-62.976 165.888-145.408V318.464c-0.512-82.432-72.192-145.408-165.888-145.408z m111.616 526.848c0 51.712-49.664 93.696-111.104 93.696H234.496c-60.928 0-111.104-42.496-111.104-93.696V324.608c0-51.712 49.664-93.696 111.104-93.696h554.496c60.928 0 111.104 42.496 111.104 93.696v375.296z" p-id="3491" fill="#2c2c2c"></path><path d="M324.096 467.968c-27.648 0-44.032 22.016-44.032 44.032s16.384 44.032 44.032 44.032c27.648 0 44.032-16.384 44.032-44.032 0-27.648-16.384-44.032-44.032-44.032z m187.904 0c-27.648 0-44.032 22.016-44.032 44.032s16.384 44.032 44.032 44.032c27.648 0 44.032-16.384 44.032-44.032 0-27.648-16.384-44.032-44.032-44.032z m187.904 0c-27.648 0-44.032 22.016-44.032 44.032s16.384 44.032 44.032 44.032c27.648 0 44.032-16.384 44.032-44.032 0-27.648-16.384-44.032-44.032-44.032z" p-id="3492" fill="#2c2c2c"></path></svg>