<svg t="1630723848515" class="icon" viewBox="0 0 1024 1024" version="1.1" xmlns="http://www.w3.org/2000/svg" p-id="6662" width="32" height="32"><path d="M341.6576 625.9712m-248.3712 0a248.3712 248.3712 0 1 0 496.7424 0 248.3712 248.3712 0 1 0-496.7424 0Z" fill="#88DEF9" p-id="6663"></path><path d="M839.2704 249.3952m-62.5664 0a62.5664 62.5664 0 1 0 125.1328 0 62.5664 62.5664 0 1 0-125.1328 0Z" fill="#88DEF9" p-id="6664"></path><path d="M191.8976 186.8288m-33.7408 0a33.7408 33.7408 0 1 0 67.4816 0 33.7408 33.7408 0 1 0-67.4816 0Z" fill="#88DEF9" p-id="6665"></path><path d="M590.0288 324.096m-33.7408 0a33.7408 33.7408 0 1 0 67.4816 0 33.7408 33.7408 0 1 0-67.4816 0Z" fill="#88DEF9" p-id="6666"></path><path d="M503.04 899.1232c-66.56 0-121.856-48.9984-131.7376-112.8448H206.0288c-53.0432 0-96.1536-43.1104-96.1536-96.1536s43.1104-96.1536 96.1536-96.1536h16.6912V401.7152c0-152.7808 124.2624-277.0432 277.0432-277.0432s277.0432 124.2624 277.0432 277.0432v192.256h23.2448c53.0432 0 96.1536 43.1104 96.1536 96.1536s-43.1104 96.1536-96.1536 96.1536h-80.5376c-11.3152 0-20.48-9.1648-20.48-20.48s9.1648-20.48 20.48-20.48h80.5376c30.4128 0 55.1936-24.7808 55.1936-55.1936s-24.7808-55.1936-55.1936-55.1936h-43.7248c-11.3152 0-20.48-9.1648-20.48-20.48V401.7152c0-130.2016-105.9328-236.0832-236.0832-236.0832s-236.032 105.8816-236.032 236.0832v212.736c0 11.3152-9.1648 20.48-20.48 20.48h-37.1712c-30.4128 0-55.1936 24.7808-55.1936 55.1936s24.7808 55.1936 55.1936 55.1936h184.1664c11.3152 0 20.48 9.1648 20.48 20.48 0 50.944 41.4208 92.3648 92.3648 92.3648s92.3648-41.4208 92.3648-92.3648c0-11.3152 9.1648-20.48 20.48-20.48s20.48 9.1648 20.48 20.48c-0.0512 73.5232-59.8528 133.3248-133.376 133.3248z" fill="#55524F" p-id="6667"></path></svg>